<?xml version="1.0" encoding="utf-8"?>
<!-- Generator: Adobe Illustrator 23.0.3, SVG Export Plug-In . SVG Version: 6.00 Build 0)  -->
<svg version="1.1" baseProfile="basic" id="Layer_1"
	 xmlns="http://www.w3.org/2000/svg" xmlns:xlink="http://www.w3.org/1999/xlink" x="0px" y="0px" viewBox="0 0 80 80"
	 xml:space="preserve">
<style type="text/css">
	.st0{display:none;}
	.st1{display:inline;}
	.st2{fill:#6E7AFF;}
	.st3{fill-rule:evenodd;clip-rule:evenodd;fill:#535EDF;}
	.st4{fill-rule:evenodd;clip-rule:evenodd;fill:#F7F7FA;}
	.st5{clip-path:url(#SVGID_2_);}
	.st6{clip-path:url(#SVGID_2_);fill:#424CA0;}
	.st7{clip-path:url(#SVGID_2_);fill:#F58220;}
</style>
<title>Group 2</title>
<desc>Created with Sketch.</desc>
<g id="thumbnail-and-coverphoto" class="st0">
	<g class="st1">
		<g id="Group-2">
			<circle id="Oval" class="st2" cx="40" cy="40" r="40"/>
			<path id="e" class="st3" d="M49.9,30.2c-4.1,0-7.4,2.7-8.1,7.5h16.2C57.9,33.1,54.4,30.2,49.9,30.2z M66.1,47.5
				c-1.9,6.4-7.5,11.5-16,11.5C40.2,59,33,52,33,41c0-11,7-18,17.2-18C60,23,67,29.9,67,40.2c0,1.1-0.1,2.3-0.2,3.4h-25
				c0.4,5.2,3.9,8.1,8.2,8.1c3.7,0,5.7-1.9,6.8-4.2H66.1z"/>
			<path id="s" class="st4" d="M41,48.5c0,6-5.1,10.5-13.3,10.5c-8.5,0-14.4-5.1-14.7-11.6h8.6c0.3,2.6,2.7,4.7,6.1,4.7
				c3.3,0,5.2-1.6,5.2-3.6c0-6.2-19.1-2.3-19.1-15c0-5.8,5-10.4,13.3-10.4c8.2,0,13.1,4.6,13.6,11.5h-8.2c-0.2-2.7-2.3-4.5-5.7-4.5
				c-3.2,0-4.8,1.3-4.8,3.3C22.1,39.7,40.8,35.7,41,48.5z"/>
		</g>
	</g>
</g>
<g>
	<g>
		<defs>
			<rect id="SVGID_1_" x="-15.8" y="-14.8" width="114.8" height="114.8"/>
		</defs>
		<clipPath id="SVGID_2_">
			<use xlink:href="#SVGID_1_"  style="overflow:visible;"/>
		</clipPath>
		<g class="st5">
			<defs>
				<rect id="SVGID_3_" x="5.7" y="1.2" width="68.8" height="78.4"/>
			</defs>
			<clipPath id="SVGID_4_">
				<use xlink:href="#SVGID_3_"  style="overflow:visible;"/>
			</clipPath>
		</g>
		<polygon class="st6" points="40.1,1.2 73.7,21.1 73.2,60.6 39.4,79.5 39.3,71.8 67.2,56.5 67.9,24.6 40.1,8.7 		"/>
		<polygon class="st7" points="40,1.2 6,20.5 5.8,60 39.3,79.5 39.5,71.8 11.9,56 11.7,24.2 39.8,8.7 		"/>
		<polygon class="st7" points="39.6,11.3 14.2,25.4 14.2,55.8 39.7,70.1 39.6,58.5 23.4,50.7 22.8,30.4 39.4,22.1 		"/>
		<polygon class="st6" points="40.1,11.7 64.7,25.1 64.6,36.4 56.6,31.3 56.3,59.8 47.3,65.1 47.7,26.4 40,22 		"/>
	</g>
</g>
</svg>
