<?xml version="1.0" encoding="utf-8"?>
<!-- Generator: Adobe Illustrator 23.0.3, SVG Export Plug-In . SVG Version: 6.00 Build 0)  -->
<svg version="1.1" id="Layer_1" xmlns="http://www.w3.org/2000/svg" xmlns:xlink="http://www.w3.org/1999/xlink" x="0px" y="0px"
	 viewBox="0 0 210.7 54" style="enable-background:new 0 0 210.7 54;" xml:space="preserve">
<style type="text/css">
	.st0{display:none;}
	.st1{display:inline;}
	.st2{fill:#6E7AFF;}
	.st3{fill-rule:evenodd;clip-rule:evenodd;fill:#535EDF;}
	.st4{fill-rule:evenodd;clip-rule:evenodd;fill:#F7F7FA;}
	.st5{fill-rule:evenodd;clip-rule:evenodd;fill:#6E7AFF;}
	.st6{clip-path:url(#SVGID_4_);fill:#424CA0;}
	.st7{clip-path:url(#SVGID_6_);fill:#F58220;}
	.st8{clip-path:url(#SVGID_8_);fill:#F58220;}
	.st9{clip-path:url(#SVGID_10_);fill:#424CA0;}
	.st10{enable-background:new    ;}
	.st11{fill:#FFFFFF;}
	.st12{font-family:'TimesNewRomanPSMT';}
	.st13{font-size:36px;}
</style>
<title>Group 3</title>
<desc>Created with Sketch.</desc>
<g id="thumbnail-and-coverphoto" class="st0">
	<g id="logo_full_white-copy-2" class="st1">
		<g id="Group">
			<g id="Group-3">
				<g id="Group-2">
					<circle id="Oval" class="st2" cx="28" cy="27" r="27"/>
					<path id="e" class="st3" d="M34.5,20.3c-2.8,0-5,1.8-5.5,5h11C40,22.3,37.6,20.3,34.5,20.3z M45.6,31.9
						c-1.3,4.3-5.1,7.8-10.9,7.8C28,39.7,23,34.9,23,27.6c0-7.4,4.8-12.1,11.7-12.1c6.7,0,11.5,4.6,11.5,11.6c0,0.8,0,1.5-0.2,2.3
						H29c0.3,3.5,2.6,5.4,5.6,5.4c2.5,0,3.9-1.3,4.7-2.8h6.3V31.9z"/>
					<path id="s" class="st4" d="M28.6,32.6c0,4-3.4,7.1-8.9,7.1c-5.7,0-9.6-3.4-9.9-7.8h5.7c0.2,1.8,1.8,3.1,4.1,3.1
						c2.2,0,3.5-1.1,3.5-2.4c0-4.2-12.7-1.5-12.7-10.1c0-3.9,3.3-7,8.9-7c5.5,0,8.8,3.1,9.1,7.8h-5.5c-0.2-1.8-1.5-3.1-3.8-3.1
						c-2.1,0-3.2,0.9-3.2,2.2C15.9,26.7,28.4,24,28.6,32.6z"/>
				</g>
				<path id="serein-copy" class="st5" d="M83,35.8c0,4.1-3.6,7.2-9.5,7.2c-6,0-10.2-3.5-10.5-7.9h6.1c0.2,1.8,1.9,3.2,4.3,3.2
					s3.7-1.1,3.7-2.4c0-4.2-13.6-1.5-13.6-10.2c0-3.9,3.6-7.1,9.5-7.1c5.8,0,9.3,3.1,9.7,7.8h-5.8c-0.2-1.8-1.6-3.1-4-3.1
					c-2.3,0-3.4,0.9-3.4,2.3C69.5,29.8,82.8,27.1,83,35.8z M98.3,23.4c-2.9,0-5.2,1.8-5.7,5.1H104C103.9,25.4,101.4,23.4,98.3,23.4z
					 M109.7,35.2c-1.3,4.4-5.3,7.8-11.2,7.8c-7,0-12.1-4.8-12.1-12.3s4.9-12.3,12.1-12.3c6.9,0,11.8,4.7,11.8,11.7
					c0,0.8,0,1.5-0.2,2.3H92.5c0.3,3.5,2.7,5.5,5.8,5.5c2.6,0,4-1.3,4.8-2.9h6.6V35.2z M120.8,30.8v11.8h-6.1V18.9h6.1v3.7
					c1.5-2.4,4-4,7.4-4v6.3h-1.6C123,24.8,120.8,26.2,120.8,30.8z M142.6,23.4c-2.9,0-5.2,1.8-5.7,5.1h11.4
					C148.2,25.4,145.7,23.4,142.6,23.4z M154,35.2c-1.3,4.4-5.3,7.8-11.2,7.8c-7,0-12.1-4.8-12.1-12.3s4.9-12.3,12.1-12.3
					c6.9,0,11.8,4.7,11.8,11.7c0,0.8,0,1.5-0.2,2.3h-17.6c0.3,3.5,2.7,5.5,5.8,5.5c2.6,0,4-1.3,4.8-2.9h6.6V35.2z M159,42.6V18.9
					h6.1v23.8L159,42.6L159,42.6z M162.1,16c-2.2,0-3.7-1.5-3.7-3.5S160,9,162.1,9c2.1,0,3.7,1.5,3.7,3.5S164.2,16,162.1,16z
					 M187.9,42.6V29.5c0-3.8-2.1-5.9-5.3-5.9c-3.3,0-5.4,2.1-5.4,5.9v13.1h-6.1V18.9h6.1v3c1.6-2,4.2-3.3,7.2-3.3
					c5.6,0,9.6,3.6,9.6,10.2v13.9L187.9,42.6L187.9,42.6z"/>
			</g>
		</g>
	</g>
</g>
<g>
	<g>
		<g>
			<defs>
				<rect id="SVGID_1_" x="-14.2" y="-10.9" width="78.2" height="78.2"/>
			</defs>
			<clipPath id="SVGID_2_">
				<use xlink:href="#SVGID_1_"  style="overflow:visible;"/>
			</clipPath>
		</g>
		<g>
			<defs>
				<rect id="SVGID_3_" x="-14.2" y="-10.9" width="78.2" height="78.2"/>
			</defs>
			<clipPath id="SVGID_4_">
				<use xlink:href="#SVGID_3_"  style="overflow:visible;"/>
			</clipPath>
			<polygon class="st6" points="23.9,0.1 46.8,13.6 46.4,40.5 23.4,53.4 23.4,48.2 42.3,37.7 42.8,16 23.9,5.2 			"/>
		</g>
		<g>
			<defs>
				<rect id="SVGID_5_" x="-14.2" y="-10.9" width="78.2" height="78.2"/>
			</defs>
			<clipPath id="SVGID_6_">
				<use xlink:href="#SVGID_5_"  style="overflow:visible;"/>
			</clipPath>
			<polygon class="st7" points="23.8,0.1 0.7,13.2 0.6,40.1 23.4,53.4 23.5,48.1 4.7,37.4 4.6,15.7 23.7,5.2 			"/>
		</g>
		<g>
			<defs>
				<rect id="SVGID_7_" x="-14.2" y="-10.9" width="78.2" height="78.2"/>
			</defs>
			<clipPath id="SVGID_8_">
				<use xlink:href="#SVGID_7_"  style="overflow:visible;"/>
			</clipPath>
			<polygon class="st8" points="23.6,7 6.3,16.6 6.3,37.3 23.7,47 23.6,39.1 12.6,33.8 12.2,19.9 23.5,14.3 			"/>
		</g>
		<g>
			<defs>
				<rect id="SVGID_9_" x="-14.2" y="-10.9" width="78.2" height="78.2"/>
			</defs>
			<clipPath id="SVGID_10_">
				<use xlink:href="#SVGID_9_"  style="overflow:visible;"/>
			</clipPath>
			<polygon class="st9" points="23.9,7.2 40.6,16.3 40.6,24 35.1,20.5 35,40 28.8,43.6 29.1,17.2 23.8,14.2 			"/>
		</g>
	</g>
</g>
<g class="st10">
	<text transform="matrix(1 0 0 1 51.0002 42.6735)" class="st11 st12 st13">ChipTranz</text>
</g>
</svg>
